# xmcd CD database file
#
# Track frame offsets:
#	190
#	28645
#	60622
#	78775
#	116265
#	148100
#	178005
#	187565
#	228337
#	244585
#	267250
#
# Disc length: 3852 seconds
#
# Revision: 0
# Processed by: cddbd v1.5PL3 Copyright (c) Steve Scherf et al.
# Submitted via: CDex 1.50
#
DISCID=820f0a0b
DTITLE=Judi Silvano - Dancing Voices
DYEAR=1900
DGENRE=New Age
TTITLE0=Ecstasy
TTITLE1=Living Room
TTITLE2=Silent Longing
TTITLE3=Isadora
TTITLE4=Come Live with Me
TTITLE5=Two Hearts Wonder
TTITLE6=Sophisticated Lady
TTITLE7=23rd Streed
TTITLE8=Trio Freeyo
TTITLE9=Calypso
TTITLE10=Children's Play Song
EXTD=
EXTT0=
EXTT1=
EXTT2=
EXTT3=
EXTT4=
EXTT5=
EXTT6=
EXTT7=
EXTT8=
EXTT9=
EXTT10=
PLAYORDER=
